<svg xmlns="http://www.w3.org/2000/svg" width="666.667" height="666.667" version="1.0" viewBox="0 0 500 500"><path d="M78.4 77.9c-.2.2-.4 77.8-.4 172.3V422h344V78l-171.6-.2c-94.4-.2-171.8-.1-172 .1zm337.4 171.9L416 416H84V83l165.8.2 165.7.3.3 166.3z"/><path d="m120.2 240.2.3 38.3 13.5.2c23.3.3 31.7-2.3 41.4-12.8 17.2-18.5 12.2-47.2-10.1-58.9-7.6-3.9-13.9-5-30.1-5H120l.2 38.2zm38-22.8c4.9 2.1 11.4 9.6 12.8 14.8 1.5 5.4.8 15.4-1.4 19.6-2.3 4.4-8 9.9-12 11.6-4 1.7-17.5 3.1-21.1 2.2l-2.5-.6v-49h10.4c6.7 0 11.6.5 13.8 1.4zM257.2 240.2l.3 38.3 6.7.3 6.7.3.3-11.7c.2-6.7.7-11.9 1.3-12 .6-.2 5.3 5.1 10.5 11.7l9.4 12 8.3-.3c4.6-.2 8.3-.5 8.3-.8 0-.3-5.2-6.8-11.5-14.5-6.3-7.6-11.5-14.3-11.5-14.9 0-.5 5.3-6 11.8-12.2l11.7-11.4H300l-9.5-.1-9.7 10.3-9.8 10.3V202h-14l.2 38.2zM315 240.4v38.5h13V202h-13v38.4zM210.6 224.4c-12.4 4.6-19.3 15.6-18.4 29.4.7 11.1 6.2 19.2 16.3 24.2 4 1.9 6.5 2.4 12.5 2.4 12-.1 20.9-5.6 26.1-16.1 1.8-3.8 2.3-6.4 2.3-12.3-.1-11.6-4.7-19.6-14.8-25.5-5.7-3.4-17.8-4.4-24-2.1zm15.7 12.1c12.4 5.2 13.1 24.3 1.1 30-7.1 3.3-16.4.2-20-6.8-1.9-3.7-2.1-12.5-.3-15.9 1.6-3 4.7-5.7 8.4-7.4 3.9-1.7 6.5-1.7 10.8.1zM333 225.5c0 .3 1 2.7 2.1 5.3 1.2 2.6 2.8 6.2 3.5 7.9.8 1.8 2 4.8 2.8 6.5.7 1.8 2.3 5.4 3.5 8 1.1 2.6 2.1 5 2.1 5.3 0 .2 1.1 2.8 2.4 5.7 6.2 13.7 6 12.3 2.6 21.2-1.8 4.5-3.6 8.9-4.1 9.8-1.8 3.5-1.1 3.9 6.2 3.6l7.1-.3 2.5-6.5c1.4-3.6 3.2-8 4-9.8 1.4-3.2 6.5-16.8 8.3-22.2.5-1.4 3.2-9 6-17 2.9-8 5.4-15.3 5.7-16.3.5-1.5-.2-1.7-5.9-1.7h-6.5l-4.7 12.7c-2.6 7.1-5.4 14.7-6.3 17-.9 2.4-1.9 4.3-2.3 4.3-.4 0-1.5-2.1-2.5-4.8-2.2-5.9-4.1-10.4-8.6-20.6l-3.7-8.1-7.1-.3c-3.9-.2-7.1 0-7.1.3z"/></svg>